<svg width="183" height="20" viewBox="0 0 183 20" fill="none" xmlns="http://www.w3.org/2000/svg">
<path d="M9.04 10.66C9.04 9.22 8.888 8.068 8.584 7.204C8.28 6.34 7.88 5.692 7.384 5.26C6.888 4.828 6.344 4.54 5.752 4.396C5.168 4.252 4.592 4.18 4.024 4.18H2.08V17.332H4.048C4.64 17.332 5.228 17.24 5.812 17.056C6.404 16.864 6.944 16.528 7.432 16.048C7.92 15.56 8.308 14.884 8.596 14.02C8.892 13.148 9.04 12.028 9.04 10.66ZM11.26 10.66C11.26 12.036 11.112 13.212 10.816 14.188C10.528 15.156 10.132 15.956 9.628 16.588C9.124 17.22 8.548 17.712 7.9 18.064C7.26 18.408 6.584 18.652 5.872 18.796C5.168 18.932 4.476 19 3.796 19H0.00400013V2.476H3.532C4.5 2.476 5.44 2.584 6.352 2.8C7.272 3.016 8.1 3.416 8.836 4C9.58 4.576 10.168 5.4 10.6 6.472C11.04 7.544 11.26 8.94 11.26 10.66ZM23.8506 16.24C23.8506 16.744 23.9346 17.112 24.1026 17.344C24.2706 17.576 24.5306 17.748 24.8826 17.86L24.3906 19.276C23.8466 19.204 23.3706 19.032 22.9626 18.76C22.5546 18.48 22.2586 18.06 22.0746 17.5C21.6186 18.084 21.0506 18.528 20.3706 18.832C19.6906 19.128 18.9386 19.276 18.1146 19.276C16.8506 19.276 15.8546 18.92 15.1266 18.208C14.3986 17.496 14.0346 16.552 14.0346 15.376C14.0346 14.072 14.5426 13.072 15.5586 12.376C16.5746 11.68 18.0426 11.332 19.9626 11.332H21.8226V10.276C21.8226 9.364 21.5546 8.72 21.0186 8.344C20.4906 7.96 19.7546 7.768 18.8106 7.768C18.3946 7.768 17.9066 7.82 17.3466 7.924C16.7866 8.02 16.1786 8.184 15.5226 8.416L14.9946 6.892C15.7706 6.604 16.4986 6.4 17.1786 6.28C17.8586 6.16 18.5066 6.1 19.1226 6.1C20.6986 6.1 21.8786 6.468 22.6626 7.204C23.4546 7.932 23.8506 8.924 23.8506 10.18V16.24ZM18.6306 17.74C19.2546 17.74 19.8506 17.584 20.4186 17.272C20.9866 16.952 21.4546 16.512 21.8226 15.952V12.7H19.9986C18.6066 12.7 17.6226 12.94 17.0466 13.42C16.4786 13.9 16.1946 14.544 16.1946 15.352C16.1946 16.136 16.3946 16.732 16.7946 17.14C17.2026 17.54 17.8146 17.74 18.6306 17.74ZM29.1933 19V6.364H30.9093L31.0653 8.116C31.5773 7.468 32.2173 6.972 32.9853 6.628C33.7613 6.276 34.5133 6.1 35.2413 6.1C36.4813 6.1 37.3813 6.428 37.9413 7.084C38.5093 7.74 38.7933 8.652 38.7933 9.82V19H36.7773V11.308C36.7773 10.444 36.7293 9.748 36.6333 9.22C36.5373 8.684 36.3373 8.296 36.0333 8.056C35.7293 7.808 35.2573 7.684 34.6173 7.684C34.1213 7.684 33.6533 7.792 33.2133 8.008C32.7813 8.224 32.3933 8.496 32.0493 8.824C31.7133 9.144 31.4333 9.468 31.2093 9.796V19H29.1933ZM49.9799 6.364V17.404H53.5439V19H44.0639V17.404H47.9639V7.96H44.1839V6.364H49.9799ZM48.3719 0.447999C48.8199 0.447999 49.1759 0.583999 49.4399 0.855999C49.7119 1.128 49.8479 1.46 49.8479 1.852C49.8479 2.26 49.7119 2.604 49.4399 2.884C49.1759 3.156 48.8199 3.292 48.3719 3.292C47.9479 3.292 47.5999 3.156 47.3279 2.884C47.0559 2.604 46.9199 2.26 46.9199 1.852C46.9199 1.46 47.0559 1.128 47.3279 0.855999C47.5999 0.583999 47.9479 0.447999 48.3719 0.447999ZM59.5585 13.396C59.5985 14.372 59.7865 15.172 60.1225 15.796C60.4585 16.412 60.9025 16.868 61.4545 17.164C62.0065 17.452 62.6065 17.596 63.2545 17.596C63.9025 17.596 64.4865 17.5 65.0065 17.308C65.5345 17.116 66.0745 16.832 66.6265 16.456L67.5745 17.788C66.9825 18.252 66.3065 18.616 65.5465 18.88C64.7945 19.144 64.0225 19.276 63.2305 19.276C62.0065 19.276 60.9625 19 60.0985 18.448C59.2345 17.896 58.5745 17.128 58.1185 16.144C57.6705 15.152 57.4465 14.004 57.4465 12.7C57.4465 11.42 57.6745 10.284 58.1305 9.292C58.5865 8.3 59.2265 7.52 60.0505 6.952C60.8745 6.384 61.8465 6.1 62.9665 6.1C64.0305 6.1 64.9465 6.352 65.7145 6.856C66.4825 7.352 67.0705 8.064 67.4785 8.992C67.8945 9.912 68.1025 11.012 68.1025 12.292C68.1025 12.508 68.0985 12.712 68.0905 12.904C68.0825 13.088 68.0705 13.252 68.0545 13.396H59.5585ZM62.9905 7.756C62.0545 7.756 61.2705 8.088 60.6385 8.752C60.0145 9.416 59.6585 10.444 59.5705 11.836H66.1585C66.1345 10.484 65.8385 9.468 65.2705 8.788C64.7025 8.1 63.9425 7.756 62.9905 7.756ZM77.2851 1.276V15.88C77.2851 16.504 77.4771 16.948 77.8611 17.212C78.2531 17.468 78.7571 17.596 79.3731 17.596C79.7571 17.596 80.1211 17.556 80.4651 17.476C80.8091 17.396 81.1531 17.288 81.4971 17.152L82.0371 18.628C81.6931 18.796 81.2651 18.944 80.7531 19.072C80.2491 19.208 79.6771 19.276 79.0371 19.276C77.9171 19.276 77.0091 18.968 76.3131 18.352C75.6171 17.728 75.2691 16.868 75.2691 15.772V2.872H71.3931V1.276H77.2851ZM109.138 14.788H102.598L101.278 19H99.2264L104.602 2.476H107.266L112.642 19H110.458L109.138 14.788ZM103.138 13.06H108.598L105.886 4.228L103.138 13.06ZM123.865 6.1C124.273 6.1 124.661 6.188 125.029 6.364C125.405 6.54 125.713 6.88 125.953 7.384C126.193 7.888 126.313 8.624 126.313 9.592V19H124.441V9.916C124.441 9.124 124.393 8.552 124.297 8.2C124.201 7.848 123.925 7.672 123.469 7.672C123.093 7.672 122.717 7.792 122.341 8.032C121.973 8.264 121.613 8.648 121.261 9.184V19H119.377V9.916C119.377 9.124 119.329 8.552 119.233 8.2C119.137 7.848 118.861 7.672 118.405 7.672C118.013 7.672 117.633 7.792 117.265 8.032C116.905 8.264 116.549 8.648 116.197 9.184V19H114.337V6.364H115.921L116.041 7.828C116.385 7.34 116.769 6.932 117.193 6.604C117.625 6.268 118.157 6.1 118.789 6.1C119.269 6.1 119.721 6.216 120.145 6.448C120.569 6.672 120.881 7.112 121.081 7.768C121.425 7.272 121.813 6.872 122.245 6.568C122.677 6.256 123.217 6.1 123.865 6.1ZM138.976 16.24C138.976 16.744 139.06 17.112 139.228 17.344C139.396 17.576 139.656 17.748 140.008 17.86L139.516 19.276C138.972 19.204 138.496 19.032 138.088 18.76C137.68 18.48 137.384 18.06 137.2 17.5C136.744 18.084 136.176 18.528 135.496 18.832C134.816 19.128 134.064 19.276 133.24 19.276C131.976 19.276 130.98 18.92 130.252 18.208C129.524 17.496 129.16 16.552 129.16 15.376C129.16 14.072 129.668 13.072 130.684 12.376C131.7 11.68 133.168 11.332 135.088 11.332H136.948V10.276C136.948 9.364 136.68 8.72 136.144 8.344C135.616 7.96 134.88 7.768 133.936 7.768C133.52 7.768 133.032 7.82 132.472 7.924C131.912 8.02 131.304 8.184 130.648 8.416L130.12 6.892C130.896 6.604 131.624 6.4 132.304 6.28C132.984 6.16 133.632 6.1 134.248 6.1C135.824 6.1 137.004 6.468 137.788 7.204C138.58 7.932 138.976 8.924 138.976 10.18V16.24ZM133.756 17.74C134.38 17.74 134.976 17.584 135.544 17.272C136.112 16.952 136.58 16.512 136.948 15.952V12.7H135.124C133.732 12.7 132.748 12.94 132.172 13.42C131.604 13.9 131.32 14.544 131.32 15.352C131.32 16.136 131.52 16.732 131.92 17.14C132.328 17.54 132.94 17.74 133.756 17.74ZM144.438 19V17.452H146.406V7.912H144.438V6.364H147.942L148.314 9.352C148.802 8.312 149.394 7.508 150.09 6.94C150.786 6.372 151.706 6.088 152.85 6.088C153.202 6.088 153.514 6.116 153.786 6.172C154.066 6.22 154.35 6.284 154.638 6.364L154.05 8.164C153.786 8.092 153.546 8.04 153.33 8.008C153.114 7.968 152.866 7.948 152.586 7.948C151.618 7.948 150.786 8.292 150.09 8.98C149.394 9.668 148.838 10.708 148.422 12.1V17.452H150.99V19H144.438ZM152.694 10.636V7.888L152.898 6.364H154.638L154.35 10.636H152.694ZM167.757 16.24C167.757 16.744 167.841 17.112 168.009 17.344C168.177 17.576 168.437 17.748 168.789 17.86L168.297 19.276C167.753 19.204 167.277 19.032 166.869 18.76C166.461 18.48 166.165 18.06 165.981 17.5C165.525 18.084 164.957 18.528 164.277 18.832C163.597 19.128 162.845 19.276 162.021 19.276C160.757 19.276 159.761 18.92 159.033 18.208C158.305 17.496 157.941 16.552 157.941 15.376C157.941 14.072 158.449 13.072 159.465 12.376C160.481 11.68 161.949 11.332 163.869 11.332H165.729V10.276C165.729 9.364 165.461 8.72 164.925 8.344C164.397 7.96 163.661 7.768 162.717 7.768C162.301 7.768 161.813 7.82 161.253 7.924C160.693 8.02 160.085 8.184 159.429 8.416L158.901 6.892C159.677 6.604 160.405 6.4 161.085 6.28C161.765 6.16 162.413 6.1 163.029 6.1C164.605 6.1 165.785 6.468 166.569 7.204C167.361 7.932 167.757 8.924 167.757 10.18V16.24ZM162.537 17.74C163.161 17.74 163.757 17.584 164.325 17.272C164.893 16.952 165.361 16.512 165.729 15.952V12.7H163.905C162.513 12.7 161.529 12.94 160.953 13.42C160.385 13.9 160.101 14.544 160.101 15.352C160.101 16.136 160.301 16.732 160.701 17.14C161.109 17.54 161.721 17.74 162.537 17.74ZM178.02 1.276V15.88C178.02 16.504 178.212 16.948 178.596 17.212C178.988 17.468 179.492 17.596 180.108 17.596C180.492 17.596 180.856 17.556 181.2 17.476C181.544 17.396 181.888 17.288 182.232 17.152L182.772 18.628C182.428 18.796 182 18.944 181.488 19.072C180.984 19.208 180.412 19.276 179.772 19.276C178.652 19.276 177.744 18.968 177.048 18.352C176.352 17.728 176.004 16.868 176.004 15.772V2.872H172.128V1.276H178.02Z" fill="black"/>
</svg>
